<svg width="39" height="33" xmlns="http://www.w3.org/2000/svg" xmlns:xlink="http://www.w3.org/1999/xlink" overflow="hidden"><defs><clipPath id="clip0"><rect x="89" y="244" width="39" height="33"/></clipPath></defs><g clip-path="url(#clip0)" transform="translate(-89 -244)"><path d="M108.499 247.002C103.397 247.002 98.5778 247.623 94.9511 248.76 91.0421 249.984 89 251.614 89 253.502 89 254.788 89.9566 255.947 91.8234 256.976 93.3861 257.813 95.5791 258.542 98.1859 259.056L98.1859 264.418C98.1859 264.44 98.1859 264.44 98.1859 264.44 98.1859 264.461 98.1859 264.461 98.1859 264.483 98.1859 264.483 98.1859 264.505 98.1859 264.505 98.1859 264.505 98.1859 264.526 98.1859 264.526 98.1859 264.526 98.1859 264.548 98.1859 264.548 98.1859 264.548 98.1859 264.548 98.2078 264.57 98.2078 264.57 98.2078 264.591 98.2078 264.591 98.2078 264.613 98.2078 264.613 98.2078 264.613 98.2297 264.635 98.2297 264.656 98.2297 264.656 98.2297 264.656 98.2297 264.678 98.2297 264.678 98.2516 264.697 98.2516 264.697 98.2516 264.719L98.2735 264.719C98.2735 264.74 98.2954 264.74 98.2954 264.762 98.2954 264.762 98.2954 264.762 98.2954 264.784 98.3149 264.784 98.3149 264.805 98.3368 264.805 98.3368 264.805 98.3368 264.827 98.3368 264.827 98.3587 264.849 98.4025 264.87 98.4245 264.892 98.4464 264.892 98.4464 264.892 98.4464 264.913 98.4683 264.913 98.4683 264.913 98.4902 264.935L98.5121 264.935C98.5121 264.935 98.534 264.935 98.534 264.957L98.5559 264.957C98.5778 264.957 98.5778 264.957 98.5973 264.976L98.6849 264.976C98.6849 264.976 98.7068 264.976 98.7068 264.998L98.7944 264.998C98.8163 264.976 98.8382 264.976 98.8601 264.976 99.033 264.957 99.2058 264.913 99.381 264.892 99.4662 264.87 99.5538 264.849 99.6195 264.849 99.7266 264.827 99.8362 264.805 99.9238 264.784 100.009 264.784 100.119 264.762 100.206 264.74 100.291 264.74 100.401 264.719 100.488 264.697 100.574 264.697 100.639 264.678 100.727 264.678 103.159 264.334 105.785 264.142 108.479 264.142 111.171 264.142 113.798 264.334 116.229 264.678 116.295 264.678 116.383 264.697 116.468 264.697 116.555 264.719 116.665 264.74 116.75 264.74 116.838 264.762 116.925 264.784 117.032 264.784 117.12 264.805 117.208 264.827 117.315 264.849 117.402 264.849 117.49 264.87 117.575 264.892 117.729 264.913 117.879 264.935 118.033 264.976L118.162 264.976C118.162 264.998 118.184 264.998 118.206 264.998 118.337 264.998 118.466 264.935 118.576 264.87 118.597 264.849 118.597 264.827 118.619 264.827 118.619 264.827 118.619 264.805 118.619 264.805 118.641 264.805 118.641 264.784 118.663 264.784 118.663 264.784 118.663 264.762 118.663 264.762 118.683 264.74 118.705 264.697 118.726 264.678 118.726 264.656 118.726 264.656 118.726 264.656 118.726 264.656 118.748 264.635 118.748 264.613 118.748 264.613 118.748 264.613 118.748 264.591 118.748 264.591 118.748 264.57 118.77 264.57 118.77 264.548 118.77 264.548 118.77 264.548 118.77 264.548 118.77 264.526 118.77 264.526 118.77 264.526 118.77 264.505 118.77 264.505 118.77 264.505 118.77 264.483 118.77 264.483 118.77 264.461 118.77 264.461 118.77 264.44L118.77 259.078C121.399 258.542 123.592 257.813 125.177 256.976 127.043 255.947 128 254.766 128 253.502 128 251.614 125.958 249.984 122.071 248.76 118.422 247.623 113.625 247.002 108.499 247.002Z" fill="#7D7D7C" fill-rule="evenodd"/><path d="M89.2703 253C89.0926 253.344 89.0025 253.706 89.0025 254.091 89.0025 255.301 89.9861 256.412 91.9284 257.381 93.5578 258.189 95.8354 258.874 98.536 259.379L98.536 264.446C98.536 264.527 98.5585 264.609 98.6036 264.688 98.6987 264.896 98.9089 265 99.1367 265 99.1742 265 99.2118 264.998 99.2518 264.991 99.9651 264.871 100.726 264.749 101.484 264.667 101.775 264.629 101.997 264.405 101.997 264.124L101.997 257.623C95.4099 256.856 90.4767 255.12 89.2703 253Z" fill-rule="evenodd" fill-opacity="0.12549"/><path d="M127.729 253.002C126.533 255.142 121.59 256.872 115 257.626L115 264.144C115 264.409 115.225 264.632 115.519 264.674 116.265 264.774 117.009 264.877 117.709 264.998L117.821 264.998C118.046 264.998 118.251 264.897 118.362 264.694 118.407 264.632 118.407 264.55 118.407 264.468L118.407 259.397C121.14 258.909 123.419 258.217 125.066 257.402 127.006 256.425 128 255.324 128 254.103 128 253.735 127.909 253.37 127.729 253.002Z" fill-rule="evenodd" fill-opacity="0.12549"/><path d="M89.0026 254C89.0026 254.021 89.0026 254.042 89.0026 254.062L89.0026 269.534C89.0026 271.081 90.6386 272.214 91.9981 272.875 93.7737 273.761 96.2885 274.484 99.2841 275L99.4004 275C99.6304 275 99.8372 274.896 99.9535 274.69 100 274.607 100 274.524 100 274.443L100 259.878C100 259.549 99.7467 259.26 99.3771 259.198 93.2672 258.146 89.1163 256.208 89.0026 254Z" fill="#5E5ADA" fill-rule="evenodd"/><path d="M128 254C127.884 256.208 123.733 258.146 117.623 259.198 117.253 259.26 117 259.549 117 259.878L117 274.443C117 274.524 117 274.607 117.047 274.69 117.163 274.896 117.37 275 117.6 275L117.716 275C120.714 274.484 123.226 273.761 125.002 272.875 126.361 272.214 128 271.081 128 269.534L128 254.062C128 254.042 128 254.021 128 254Z" fill="#5E5ADA" fill-rule="evenodd"/><path d="M128 254.002C127.949 255.092 126.865 256.118 125.003 256.998L125.003 272.998C126.414 272.307 128 271.197 128 269.711L128 254.066C128 254.045 128 254.023 128 254.002Z" fill-rule="evenodd" fill-opacity="0.12549"/><path d="M108.491 244.002C106.334 244.002 104.489 245.632 104.157 247.81 104.136 248.024 104.115 248.256 104.115 248.468 104.115 249.801 104.696 251.006 105.609 251.832 104.654 251.896 103.743 252.342 103.078 253.061 102.374 253.844 102 254.902 102.063 255.981L102.644 264.425C102.727 265.548 103.597 266.437 104.675 266.542L105.567 276.49C105.588 276.786 105.816 276.998 106.106 276.998L110.894 276.998C111.163 276.998 111.412 276.786 111.433 276.49L112.325 266.542C113.403 266.437 114.275 265.548 114.335 264.425L114.916 255.981C115 254.902 114.626 253.844 113.901 253.061 113.238 252.342 112.325 251.896 111.372 251.832 112.283 251.006 112.864 249.801 112.864 248.468 112.864 248.256 112.864 248.024 112.822 247.81 112.511 245.632 110.645 244.002 108.491 244.002Z" fill="#F5774D" fill-rule="evenodd"/><path d="M108.303 244.002C107.854 244.002 107.406 244.064 107 244.192 108.621 244.7 109.881 246.076 110.137 247.81 110.158 248.024 110.18 248.256 110.18 248.468 110.18 249.801 109.582 251.006 108.643 251.832 109.625 251.896 110.562 252.342 111.246 253.061 111.971 253.844 112.356 254.902 112.291 255.981L111.693 264.425C111.607 265.548 110.713 266.437 109.604 266.542L108.686 276.49C108.664 276.786 108.43 276.998 108.131 276.998L110.775 276.998C111.053 276.998 111.308 276.786 111.33 276.49L112.248 266.542C113.357 266.437 114.254 265.548 114.316 264.425L114.914 255.981C115 254.902 114.615 253.844 113.869 253.061 113.207 252.342 112.27 251.896 111.268 251.832 112.227 251.006 112.824 249.801 112.824 248.468 112.824 248.256 112.803 248.024 112.76 247.81 112.439 245.632 110.519 244.002 108.303 244.002Z" fill-rule="evenodd" fill-opacity="0.12549"/></g></svg>