<svg width="34" height="39" xmlns="http://www.w3.org/2000/svg" xmlns:xlink="http://www.w3.org/1999/xlink" overflow="hidden"><defs><clipPath id="clip0"><rect x="84" y="211" width="34" height="39"/></clipPath></defs><g clip-path="url(#clip0)" transform="translate(-84 -211)"><path d="M102.053 211C98.9207 211 96.2188 211.779 94.0745 213.336 92.4231 214.516 91.0721 216.158 90.0649 218.199 90 218.366 90 218.578 90.1082 218.725 90.1923 218.892 90.3654 218.998 90.5577 218.998L95.5769 219.272C96.0913 219.293 96.5841 219.421 97.0553 219.61 97.2692 219.713 97.5048 219.841 97.7212 219.966 97.7837 220.029 97.8702 220.093 97.9351 220.136 97.9567 220.157 97.9784 220.178 98 220.178 98.1058 220.261 98.1923 220.324 98.2572 220.409 98.2788 220.409 98.2788 220.431 98.2788 220.431 98.899 220.999 99.3077 221.735 99.4784 222.556 99.5433 222.809 99.7572 222.998 100.036 222.998L116.399 222.998C116.486 222.998 116.57 222.976 116.656 222.934 116.892 222.83 117 222.599 116.978 222.346 116.464 218.873 114.661 215.948 111.724 213.883 109.087 212.031 105.654 211 102.053 211Z" fill="#E1B057" fill-rule="evenodd"/><path d="M100.26 227.002C100.006 227.002 99.774 227.194 99.7313 227.451 99.5631 228.285 99.139 229.012 98.5491 229.612L98.5278 229.612C98.4425 229.698 98.3572 229.763 98.2743 229.847 98.253 229.868 98.2317 229.868 98.2103 229.89 98.1464 229.954 98.0611 229.998 97.9995 230.062 97.7886 230.189 97.5541 230.319 97.3432 230.424 96.8789 230.619 96.3932 230.746 95.8862 230.767L87.3265 231.237C87.1559 231.237 86.9877 231.216 86.8385 231.153 86.7769 231.153 86.7342 231.132 86.6702 231.089 86.6702 231.089 86.6489 231.089 86.6276 231.067 86.585 231.046 86.5234 231.024 86.4594 231.024 86.431 231.019 86.4002 231.017 86.3717 231.017 86.149 231.017 85.9429 231.158 85.8671 231.367 85.5923 232.007 85.3601 232.607 85.1493 233.098 85 233.463 85 233.89 85.1493 234.254 85.3814 234.789 85.9098 235.132 86.4594 235.132L88.1912 235.132C88.4447 236.458 89.2076 240.309 89.8188 241.914 90.3685 243.41 91.6999 244.266 93.645 244.439 93.8416 244.453 94.0335 244.46 94.2231 244.46 94.8035 244.46 95.3271 244.396 95.6943 244.331L96.6041 249.53C96.6467 249.808 96.8789 250 97.1537 250L112.349 250C112.435 250 112.518 250 112.582 249.957 112.835 249.851 112.963 249.592 112.92 249.357L111.546 240.331C114.591 235.815 116.408 231.559 116.957 227.645 117 227.408 116.872 227.173 116.64 227.046 116.555 227.024 116.472 227.002 116.408 227.002Z" fill="#E1B057" fill-rule="evenodd"/><path d="M102.556 211C102.038 211 101.52 211.021 101.002 211.064 103.883 211.337 106.596 212.305 108.751 213.883 111.59 215.948 113.332 218.873 113.829 222.346 113.85 222.514 113.808 222.681 113.683 222.809 113.581 222.913 113.434 222.998 113.29 222.998L116.419 222.998C116.503 222.998 116.584 222.976 116.647 222.934 116.895 222.83 117 222.599 116.979 222.346 116.482 218.873 114.74 215.948 111.901 213.883 109.353 212.031 106.036 211 102.556 211Z" fill-rule="evenodd" fill-opacity="0.12549"/><path d="M113.049 227.002C113.223 227.002 113.378 227.089 113.487 227.194 113.597 227.324 113.642 227.494 113.619 227.645 113.049 231.559 111.162 235.815 108 240.331L109.427 249.357C109.449 249.53 109.405 249.679 109.294 249.808 109.186 249.935 109.009 250 108.856 250L112.192 250C112.237 250 112.303 250 112.367 249.978 112.653 249.87 112.808 249.614 112.763 249.357L111.336 240.331C114.498 235.815 116.385 231.559 116.956 227.645 117 227.408 116.867 227.173 116.626 227.046 116.537 227.024 116.451 227.002 116.385 227.002Z" fill-rule="evenodd" fill-opacity="0.12549"/><path d="M99.6232 222C99.539 222 99.4524 222.023 99.3658 222.047 99.1299 222.186 99 222.463 99.065 222.74 99.1299 223.063 99.1516 223.363 99.1516 223.686L99.1516 226.314C99.1516 226.614 99.1299 226.937 99.065 227.26 99.0217 227.447 99.065 227.63 99.1733 227.77 99.2791 227.907 99.4524 228 99.6232 228L116.39 228C117.29 228 118 227.214 118 226.247L118 223.753C118 222.786 117.268 222 116.39 222Z" fill="#1D1D1B" fill-rule="evenodd"/><path d="M101 223C100.333 223.11 100 223.236 100.333 223.382 100.667 223.581 101 223.78 101 223.998 101 223.961 101 223.925 101 223.872L101 223Z" fill="#1D2728" fill-rule="evenodd"/><path d="M118 224.002C117.897 224.768 117.247 225.37 116.473 225.37L100.571 225.37C100.409 225.37 100.244 225.307 100.144 225.182 100.144 225.163 100.123 225.163 100.123 225.142L100.123 226.486C100.123 226.777 100.103 227.046 100.041 227.336 100 227.503 100.041 227.668 100.144 227.793 100.244 227.916 100.409 228 100.571 228L116.473 228C117.327 228 118 227.294 118 226.426L118 224.209C118 224.128 118 224.065 118 224.002Z" fill-rule="evenodd" fill-opacity="0.12549"/><path d="M86.8173 218.002C85.2546 218.002 84.0025 219.24 84.0025 220.737L84.0025 229.345C84.0025 230.81 85.193 231.998 86.6842 231.998 86.736 231.998 86.7877 231.995 86.8395 231.993L95.8091 231.524C98.7126 231.375 101 229.045 101 226.206L101 223.792C101 220.971 98.7126 218.644 95.8091 218.472L86.8395 218.002Z" fill="#7D7D7C" fill-rule="evenodd"/><path d="M101 224.002C100.933 226.694 98.6683 228.87 95.8091 229.016L86.8395 229.467 86.8173 229.467C85.2546 229.467 84.0025 228.295 84.0025 226.837L84.0025 229.446C84.0025 230.855 85.193 231.998 86.6842 231.998 86.736 231.998 86.7877 231.995 86.8395 231.993L95.8091 231.542C98.7126 231.399 101 229.158 101 226.427L101 224.127C101 224.085 101 224.044 101 224.002Z" fill-rule="evenodd" fill-opacity="0.12549"/><path d="M93.0024 218.003 93.0024 218.003C95.3484 218.762 97.0219 221.02 97.0219 223.659L97.0219 226.341C97.0219 228.98 95.3484 231.238 93.0024 231.997L95.8697 231.82C98.7393 231.664 101 229.226 101 226.253L101 223.727C101 220.774 98.7393 218.316 95.8697 218.158L93.0024 218.003Z" fill="#5E5ADA" fill-rule="evenodd"/><path d="M87.0925 218C85.3772 218 84.0027 219.214 84.0027 220.723L84.0027 229.339C84.0027 230.822 85.3528 232 87.0276 232 87.0574 232 87.0871 231.998 87.1169 231.998L87.1412 231.998 88.3939 231.933C88.7321 231.912 88.9973 231.678 88.9973 231.38L88.9973 218.618C88.9973 218.32 88.7321 218.064 88.3939 218.064L87.1412 218Z" fill="#1D1D1B" fill-rule="evenodd"/><path d="M84.0027 227 84.0027 229.539C84.0027 230.904 85.3528 232 87.0276 232 87.0574 232 87.0871 231.998 87.1169 231.998L87.1412 231.998 88.3939 231.938C88.7321 231.938 88.9973 231.7 88.9973 231.422L88.9973 229.459 87.1412 229.539 87.0925 229.539C85.3772 229.539 84.0027 228.407 84.0027 227Z" fill-rule="evenodd" fill-opacity="0.12549"/><path d="M101 224.002C100.934 226.603 98.9836 228.757 96.4036 229.163 95.7112 230.506 94.4965 231.529 93.0024 231.998L95.8837 231.849C98.7455 231.68 101 229.354 101 226.519L101 224.11C101 224.088 101 224.045 101 224.002Z" fill-rule="evenodd" fill-opacity="0.12549"/></g></svg>