<svg width="35" height="39" xmlns="http://www.w3.org/2000/svg" xmlns:xlink="http://www.w3.org/1999/xlink" overflow="hidden"><defs><clipPath id="clip0"><rect x="84" y="211" width="35" height="39"/></clipPath></defs><g clip-path="url(#clip0)" transform="translate(-84 -211)"><path d="M101.671 222.002C101.478 222.002 98.3269 222.002 94.7452 223.023 92.601 223.619 90.7572 224.449 89.2548 225.513 87.3462 226.853 85.9952 228.534 85.2452 230.533 84.4087 232.703 84.0024 236.171 84.1731 239.767 84.3438 243.511 85.0745 246.659 86.1683 248.383 86.8101 249.382 87.5817 249.914 88.4615 250L88.7188 250C90.6707 250 91.4423 248.319 92.2788 246.554 93.5433 243.809 95.1106 240.406 101.5 240.406 107.892 240.406 109.478 243.809 110.743 246.554 111.558 248.319 112.329 250 114.281 250L114.538 250C115.418 249.914 116.19 249.382 116.834 248.383 117.95 246.659 118.678 243.511 118.849 239.767 119 236.171 118.613 232.703 117.776 230.533 117.005 228.534 115.675 226.853 113.81 225.513 112.329 224.471 110.529 223.619 108.428 223.023 104.93 222.002 101.844 222.002 101.671 222.002Z" fill="#7D7D7C" fill-rule="evenodd"/><path d="M101.5 237C93.8496 237 91.9684 241.342 90.4449 244.812 89.5801 246.794 88.7556 248.688 87 249.109 87.4857 249.643 88.0354 249.933 88.649 250L88.9025 250C90.8264 250 91.5869 248.241 92.4114 246.394 93.6577 243.522 95.2025 239.962 101.5 239.962 107.8 239.962 109.364 243.522 110.61 246.394 111.413 248.241 112.174 250 114.097 250L114.351 250C114.965 249.933 115.514 249.643 116 249.109 114.247 248.688 113.422 246.794 112.555 244.812 111.053 241.342 109.153 237 101.5 237Z" fill-rule="evenodd" fill-opacity="0.12549"/><path d="M101.5 211C99.3333 211 97.1881 211.679 95.3405 212.946 95.0643 213.12 95 213.471 95.1714 213.733 95.281 213.902 95.469 214 95.6595 214 95.7619 214 95.8667 213.971 95.9571 213.909 97.6143 212.75 99.5452 212.159 101.5 212.159 103.455 212.159 105.388 212.75 107.064 213.909 107.15 213.973 107.257 213.995 107.362 213.995 107.555 213.995 107.724 213.909 107.831 213.733 108 213.471 107.936 213.12 107.681 212.946 105.812 211.679 103.688 211 101.5 211Z" fill="#F5774D" fill-rule="evenodd"/><path d="M101.5 215C100.028 215 98.6026 215.378 97.3467 216.076 97.0873 216.226 97.0024 216.529 97.1746 216.774 97.2812 216.913 97.4582 216.989 97.6377 216.989 97.7443 216.989 97.8559 216.962 97.9529 216.905 99.0342 216.321 100.268 216 101.5 216 102.756 216 103.966 216.321 105.047 216.905 105.134 216.962 105.241 217 105.35 217 105.544 217 105.719 216.905 105.825 216.774 106 216.529 105.935 216.226 105.675 216.076 104.4 215.378 102.972 215 101.5 215Z" fill="#F5774D" fill-rule="evenodd"/><path d="M101.5 218C100.74 218 100.001 218.278 99.3335 218.811 99.048 219.013 99 219.444 99.2161 219.748 99.3415 219.912 99.5283 219.997 99.715 219.997 99.8458 219.997 99.9792 219.955 100.097 219.872 100.523 219.518 101.001 219.342 101.5 219.342 101.999 219.342 102.477 219.518 102.927 219.872 103.023 219.949 103.168 220 103.309 220 103.498 220 103.666 219.898 103.808 219.748 104 219.444 103.952 219.013 103.666 218.811 103.023 218.278 102.263 218 101.5 218Z" fill="#F5774D" fill-rule="evenodd"/><path d="M93.253 229C92.8424 229 92.5169 229.326 92.5169 229.736L92.5169 231.515 90.7385 231.515C90.328 231.515 90.0024 231.841 90.0024 232.252L90.0024 233.748C90.0024 234.159 90.328 234.485 90.7385 234.485L92.5169 234.485 92.5169 236.264C92.5169 236.674 92.8424 237 93.253 237L94.7495 237C95.16 237 95.4856 236.674 95.4856 236.264L95.4856 234.485 97.2615 234.485C97.6745 234.485 98 234.159 98 233.748L98 232.252C98 231.841 97.6745 231.515 97.2615 231.515L95.4856 231.515 95.4856 229.736C95.4856 229.326 95.16 229 94.7495 229Z" fill="#1D1D1B" fill-rule="evenodd"/><path d="M109.5 228C108.66 228 108 228.678 108 229.513 108 230.319 108.66 230.997 109.5 230.997 110.34 230.997 110.997 230.319 110.997 229.513 110.997 228.678 110.34 228 109.5 228Z" fill="#FABA48" fill-rule="evenodd"/><path d="M109.5 235C108.66 235 108 235.452 108 235.992 108 236.548 108.66 237 109.5 237 110.34 237 110.997 236.548 110.997 235.992 110.997 235.452 110.34 235 109.5 235Z" fill="#FABA48" fill-rule="evenodd"/><path d="M113 231.003C112.44 231.003 112.002 231.66 112.002 232.5 112.002 233.316 112.44 234 113 234 113.562 234 114 233.316 114 232.5 114 231.66 113.562 231.003 113 231.003Z" fill="#FABA48" fill-rule="evenodd"/><path d="M106.5 231.003C105.657 231.003 105 231.66 105 232.5 105 233.316 105.657 234 106.5 234 107.34 234 107.997 233.316 107.997 232.5 107.997 231.66 107.34 231.003 106.5 231.003Z" fill="#FABA48" fill-rule="evenodd"/></g></svg>